<?xml version="1.0" encoding="UTF-8"?>
<svg id="OBJECTS" xmlns="http://www.w3.org/2000/svg" viewBox="0 0 588.08 368.87">
  <defs>
    <style>
      .cls-1 {
        stroke: #f4e3cf;
      }

      .cls-1, .cls-2, .cls-3 {
        fill: none;
        stroke-miterlimit: 10;
        stroke-width: 2px;
      }

      .cls-4 {
        fill: #f4e3cf;
      }

      .cls-5 {
        fill: #6bb264;
      }

      .cls-6 {
        fill: #6955cd;
      }

      .cls-7 {
        fill: #1c1d26;
      }

      .cls-8 {
        fill: #da8cb6;
      }

      .cls-9 {
        fill: #f2d34d;
      }

      .cls-2 {
        stroke: #da8cb6;
      }

      .cls-10 {
        fill: #df644d;
      }

      .cls-11 {
        fill: #fcf8ed;
      }

      .cls-3 {
        stroke: #1c1d26;
      }
    </style>
  </defs>
  <polygon class="cls-5" points="451.61 56.66 304.66 56.66 378.13 130.14 451.61 56.66"/>
  <path class="cls-10" d="M64.3,304.58c-17.17-17.17-40.93-23.7-63.13-19.64-4.07,22.2,2.47,45.96,19.64,63.13,17.17,17.17,40.93,23.7,63.13,19.64,4.07-22.2-2.47-45.96-19.64-63.13Z"/>
  <path class="cls-5" d="M137.08,304.58c-17.17-17.17-40.93-23.7-63.13-19.64-4.07,22.2,2.47,45.96,19.64,63.13,17.17,17.17,40.93,23.7,63.13,19.64,4.07-22.2-2.47-45.96-19.64-63.13Z"/>
  <path class="cls-9" d="M584.56,286.53c0-5.06,4.71-10.81,3.23-15.38-1.54-4.73-8.78-6.6-11.64-10.55-2.9-3.98-2.46-11.43-6.44-14.33-3.94-2.87-10.88-.17-15.61-1.7-4.57-1.48-8.57-7.8-13.63-7.8s-9.07,6.31-13.63,7.8c-4.73,1.54-11.67-1.16-15.61,1.71-3.98,2.9-3.54,10.35-6.44,14.33-2.87,3.94-10.11,5.81-11.64,10.55-1.48,4.57,3.23,10.32,3.23,15.38s-4.71,10.81-3.23,15.38c1.54,4.73,8.78,6.6,11.64,10.55,2.9,3.98,2.46,11.43,6.44,14.33,3.94,2.87,10.88.17,15.61,1.7,4.57,1.48,8.57,7.8,13.63,7.8s9.07-6.31,13.63-7.8c4.73-1.54,11.67,1.16,15.61-1.71,3.98-2.9,3.54-10.35,6.44-14.33,2.87-3.94,10.11-5.81,11.64-10.55,1.48-4.57-3.23-10.32-3.23-15.38Z"/>
  <g>
    <g>
      <path class="cls-6" d="M539.33,332.1c12.06,12.06,28.75,16.65,44.34,13.79,2.86-15.59-1.74-32.28-13.79-44.34-12.06-12.06-28.75-16.65-44.34-13.79-2.86,15.59,1.74,32.28,13.79,44.34Z"/>
      <line class="cls-3" x1="568.88" y1="331.1" x2="525.54" y2="287.76"/>
    </g>
    <polyline class="cls-3" points="571.96 303.77 546.1 308.32 542 334.58"/>
  </g>
  <g>
    <circle class="cls-6" cx="379.7" cy="56.66" r="8.14" transform="translate(-2.83 89.07) rotate(-13.33)"/>
    <path class="cls-10" d="M422.1,56.66c0-4.49-3.64-8.14-8.14-8.14s-8.14,3.64-8.14,8.14,3.64,8.14,8.14,8.14,8.14-3.64,8.14-8.14Z"/>
    <circle class="cls-9" cx="448.22" cy="56.66" r="8.14" transform="translate(-.99 104.87) rotate(-13.33)"/>
    <circle class="cls-6" cx="482.49" cy="56.66" r="8.14" transform="translate(199.5 451.53) rotate(-61.07)"/>
  </g>
  <path class="cls-8" d="M247.57,234.72c0,62.65,50.79,113.44,113.44,113.44s113.44-50.79,113.44-113.44h-226.87Z"/>
  <path class="cls-11" d="M273.99,234.72c0,48.05,38.96,87.01,87.01,87.01s87.01-38.96,87.01-87.01h-174.02Z"/>
  <g>
    <path class="cls-9" d="M146.73,41.2h0c-20.13,0-36.45,16.32-36.45,36.45v171.14c0,20.13,16.32,36.45,36.45,36.45h0c20.13,0,36.45-16.32,36.45-36.45V77.65c0-20.13-16.32-36.45-36.45-36.45Z"/>
    <g>
      <path class="cls-11" d="M183.18,77.65v171.14c0,20.13,16.32,36.45,36.45,36.45V41.2c-20.13,0-36.45,16.32-36.45,36.45Z"/>
      <path class="cls-9" d="M73.83,41.2v244.04c20.13,0,36.45-16.32,36.45-36.45V77.65c0-20.13-16.32-36.45-36.45-36.45Z"/>
    </g>
  </g>
  <g>
    <path class="cls-8" d="M155.49,202.61h64.14v-77.4c-36.51,6.86-64.14,38.89-64.14,77.4Z"/>
    <path class="cls-6" d="M234.27,123.83c-5.01,0-9.89.49-14.64,1.38v77.4h93.42c0-43.51-35.27-78.78-78.78-78.78Z"/>
  </g>
  <g>
    <rect class="cls-6" x="313.05" y="202.61" width="65.09" height="65.09"/>
    <path class="cls-5" d="M350.37,267.69h-37.32v-65.09h0c20.61,0,37.32,16.71,37.32,37.32v27.76Z"/>
  </g>
  <path class="cls-10" d="M480.42,130.14h-102.29v72.47h174.76c0-40.02-32.45-72.47-72.47-72.47Z"/>
  <g>
    <rect class="cls-4" x="350.37" y="157.87" width="57.84" height="11.02"/>
    <rect class="cls-4" x="350.37" y="135.84" width="57.84" height="11.02"/>
    <rect class="cls-4" x="408.21" y="146.85" width="57.84" height="11.02"/>
  </g>
  <circle class="cls-8" cx="274.24" cy="122.56" r="29.8" transform="translate(57.6 330.63) rotate(-67.92)"/>
  <circle class="cls-8" cx="274.24" cy="62.95" r="29.8"/>
  <circle class="cls-1" cx="274.24" cy="30.8" r="29.8" transform="translate(142.63 273.36) rotate(-67.92)"/>
  <g>
    <line class="cls-1" x1="448.15" y1="69.96" x2="448.15" y2="115.55"/>
    <line class="cls-1" x1="464.27" y1="108.87" x2="432.03" y2="76.63"/>
    <line class="cls-1" x1="464.27" y1="76.63" x2="432.03" y2="108.87"/>
    <polyline class="cls-1" points="470.19 92.75 321.82 92.75 345.1 116.03"/>
  </g>
  <g>
    <path class="cls-1" d="M52.18,231.78h0c-22.04,0-39.9-17.86-39.9-39.9v-76.57h79.8v76.57c0,22.04-17.86,39.9-39.9,39.9Z"/>
    <path class="cls-1" d="M52.18,202.62h0c22.04,0,39.9,17.86,39.9,39.9v76.57H12.28v-76.57c0-22.04,17.86-39.9,39.9-39.9Z"/>
  </g>
  <g>
    <path class="cls-3" d="M146.73,201.61c0-14.06-11.39-25.45-25.45-25.45,14.06,0,25.45-11.39,25.45-25.45,0,14.06,11.39,25.45,25.45,25.45-14.06,0-25.45,11.39-25.45,25.45Z"/>
    <path class="cls-3" d="M146.73,153.02c0-14.06-11.39-25.45-25.45-25.45,14.06,0,25.45-11.39,25.45-25.45,0,14.06,11.39,25.45,25.45,25.45-14.06,0-25.45,11.39-25.45,25.45Z"/>
  </g>
  <g>
    <path class="cls-4" d="M53.52,78.21c.74,0,1.34.6,1.34,1.34s-.6,1.34-1.34,1.34-1.34-.6-1.34-1.34.6-1.34,1.34-1.34Z"/>
    <path class="cls-4" d="M53.52,67.27c.74,0,1.34.6,1.34,1.34s-.6,1.34-1.34,1.34-1.34-.6-1.34-1.34.6-1.34,1.34-1.34Z"/>
    <path class="cls-4" d="M53.52,56.33c.74,0,1.34.6,1.34,1.34s-.6,1.34-1.34,1.34-1.34-.6-1.34-1.34.6-1.34,1.34-1.34Z"/>
    <path class="cls-4" d="M53.52,45.39c.74,0,1.34.6,1.34,1.34s-.6,1.34-1.34,1.34-1.34-.6-1.34-1.34.6-1.34,1.34-1.34Z"/>
    <path class="cls-4" d="M53.52,34.45c.74,0,1.34.6,1.34,1.34s-.6,1.34-1.34,1.34-1.34-.6-1.34-1.34.6-1.34,1.34-1.34Z"/>
    <path class="cls-4" d="M45.51,78.21c.74,0,1.34.6,1.34,1.34s-.6,1.34-1.34,1.34-1.34-.6-1.34-1.34.6-1.34,1.34-1.34Z"/>
    <path class="cls-4" d="M45.51,67.27c.74,0,1.34.6,1.34,1.34s-.6,1.34-1.34,1.34-1.34-.6-1.34-1.34.6-1.34,1.34-1.34Z"/>
    <path class="cls-4" d="M45.51,56.33c.74,0,1.34.6,1.34,1.34s-.6,1.34-1.34,1.34-1.34-.6-1.34-1.34.6-1.34,1.34-1.34Z"/>
    <path class="cls-4" d="M45.51,45.39c.74,0,1.34.6,1.34,1.34s-.6,1.34-1.34,1.34-1.34-.6-1.34-1.34.6-1.34,1.34-1.34Z"/>
    <path class="cls-4" d="M45.51,34.45c.74,0,1.34.6,1.34,1.34s-.6,1.34-1.34,1.34-1.34-.6-1.34-1.34.6-1.34,1.34-1.34Z"/>
    <path class="cls-4" d="M37.49,78.21c.74,0,1.34.6,1.34,1.34s-.6,1.34-1.34,1.34-1.34-.6-1.34-1.34.6-1.34,1.34-1.34Z"/>
    <path class="cls-4" d="M37.49,67.27c.74,0,1.34.6,1.34,1.34s-.6,1.34-1.34,1.34-1.34-.6-1.34-1.34.6-1.34,1.34-1.34Z"/>
    <path class="cls-4" d="M37.49,56.33c.74,0,1.34.6,1.34,1.34s-.6,1.34-1.34,1.34-1.34-.6-1.34-1.34.6-1.34,1.34-1.34Z"/>
    <path class="cls-4" d="M37.49,45.39c.74,0,1.34.6,1.34,1.34s-.6,1.34-1.34,1.34-1.34-.6-1.34-1.34.6-1.34,1.34-1.34Z"/>
    <path class="cls-4" d="M37.49,34.45c.74,0,1.34.6,1.34,1.34s-.6,1.34-1.34,1.34-1.34-.6-1.34-1.34.6-1.34,1.34-1.34Z"/>
  </g>
  <g>
    <path class="cls-4" d="M214.78,336.66c0,.74-.6,1.34-1.34,1.34s-1.34-.6-1.34-1.34.6-1.34,1.34-1.34,1.34.6,1.34,1.34Z"/>
    <path class="cls-4" d="M225.72,336.66c0,.74-.6,1.34-1.34,1.34s-1.34-.6-1.34-1.34.6-1.34,1.34-1.34,1.34.6,1.34,1.34Z"/>
    <path class="cls-4" d="M236.66,336.66c0,.74-.6,1.34-1.34,1.34s-1.34-.6-1.34-1.34.6-1.34,1.34-1.34,1.34.6,1.34,1.34Z"/>
    <path class="cls-4" d="M247.6,336.66c0,.74-.6,1.34-1.34,1.34s-1.34-.6-1.34-1.34.6-1.34,1.34-1.34,1.34.6,1.34,1.34Z"/>
    <path class="cls-4" d="M258.54,336.66c0,.74-.6,1.34-1.34,1.34s-1.34-.6-1.34-1.34.6-1.34,1.34-1.34,1.34.6,1.34,1.34Z"/>
    <path class="cls-4" d="M214.78,328.65c0,.74-.6,1.34-1.34,1.34s-1.34-.6-1.34-1.34.6-1.34,1.34-1.34,1.34.6,1.34,1.34Z"/>
    <path class="cls-4" d="M225.72,328.65c0,.74-.6,1.34-1.34,1.34s-1.34-.6-1.34-1.34.6-1.34,1.34-1.34,1.34.6,1.34,1.34Z"/>
    <path class="cls-4" d="M236.66,328.65c0,.74-.6,1.34-1.34,1.34s-1.34-.6-1.34-1.34.6-1.34,1.34-1.34,1.34.6,1.34,1.34Z"/>
    <path class="cls-4" d="M247.6,328.65c0,.74-.6,1.34-1.34,1.34s-1.34-.6-1.34-1.34.6-1.34,1.34-1.34,1.34.6,1.34,1.34Z"/>
    <path class="cls-4" d="M258.54,328.65c0,.74-.6,1.34-1.34,1.34s-1.34-.6-1.34-1.34.6-1.34,1.34-1.34,1.34.6,1.34,1.34Z"/>
    <path class="cls-4" d="M214.78,320.63c0,.74-.6,1.34-1.34,1.34s-1.34-.6-1.34-1.34.6-1.34,1.34-1.34,1.34.6,1.34,1.34Z"/>
    <path class="cls-4" d="M225.72,320.63c0,.74-.6,1.34-1.34,1.34s-1.34-.6-1.34-1.34.6-1.34,1.34-1.34,1.34.6,1.34,1.34Z"/>
    <path class="cls-4" d="M236.66,320.63c0,.74-.6,1.34-1.34,1.34s-1.34-.6-1.34-1.34.6-1.34,1.34-1.34,1.34.6,1.34,1.34Z"/>
    <path class="cls-4" d="M247.6,320.63c0,.74-.6,1.34-1.34,1.34s-1.34-.6-1.34-1.34.6-1.34,1.34-1.34,1.34.6,1.34,1.34Z"/>
    <path class="cls-4" d="M258.54,320.63c0,.74-.6,1.34-1.34,1.34s-1.34-.6-1.34-1.34.6-1.34,1.34-1.34,1.34.6,1.34,1.34Z"/>
  </g>
  <g>
    <path class="cls-4" d="M470.09,36.49c0,.74-.6,1.34-1.34,1.34s-1.34-.6-1.34-1.34.6-1.34,1.34-1.34,1.34.6,1.34,1.34Z"/>
    <path class="cls-4" d="M481.03,36.49c0,.74-.6,1.34-1.34,1.34s-1.34-.6-1.34-1.34.6-1.34,1.34-1.34,1.34.6,1.34,1.34Z"/>
    <path class="cls-4" d="M491.97,36.49c0,.74-.6,1.34-1.34,1.34s-1.34-.6-1.34-1.34.6-1.34,1.34-1.34,1.34.6,1.34,1.34Z"/>
    <path class="cls-4" d="M502.91,36.49c0,.74-.6,1.34-1.34,1.34s-1.34-.6-1.34-1.34.6-1.34,1.34-1.34,1.34.6,1.34,1.34Z"/>
    <path class="cls-4" d="M513.85,36.49c0,.74-.6,1.34-1.34,1.34s-1.34-.6-1.34-1.34.6-1.34,1.34-1.34,1.34.6,1.34,1.34Z"/>
    <path class="cls-4" d="M470.09,28.47c0,.74-.6,1.34-1.34,1.34s-1.34-.6-1.34-1.34.6-1.34,1.34-1.34,1.34.6,1.34,1.34Z"/>
    <path class="cls-4" d="M481.03,28.47c0,.74-.6,1.34-1.34,1.34s-1.34-.6-1.34-1.34.6-1.34,1.34-1.34,1.34.6,1.34,1.34Z"/>
    <path class="cls-4" d="M491.97,28.47c0,.74-.6,1.34-1.34,1.34s-1.34-.6-1.34-1.34.6-1.34,1.34-1.34,1.34.6,1.34,1.34Z"/>
    <path class="cls-4" d="M502.91,28.47c0,.74-.6,1.34-1.34,1.34s-1.34-.6-1.34-1.34.6-1.34,1.34-1.34,1.34.6,1.34,1.34Z"/>
    <path class="cls-4" d="M513.85,28.47c0,.74-.6,1.34-1.34,1.34s-1.34-.6-1.34-1.34.6-1.34,1.34-1.34,1.34.6,1.34,1.34Z"/>
    <path class="cls-4" d="M470.09,20.45c0,.74-.6,1.34-1.34,1.34s-1.34-.6-1.34-1.34.6-1.34,1.34-1.34,1.34.6,1.34,1.34Z"/>
    <path class="cls-4" d="M481.03,20.45c0,.74-.6,1.34-1.34,1.34s-1.34-.6-1.34-1.34.6-1.34,1.34-1.34,1.34.6,1.34,1.34Z"/>
    <path class="cls-4" d="M491.97,20.45c0,.74-.6,1.34-1.34,1.34s-1.34-.6-1.34-1.34.6-1.34,1.34-1.34,1.34.6,1.34,1.34Z"/>
    <path class="cls-4" d="M502.91,20.45c0,.74-.6,1.34-1.34,1.34s-1.34-.6-1.34-1.34.6-1.34,1.34-1.34,1.34.6,1.34,1.34Z"/>
    <path class="cls-4" d="M513.85,20.45c0,.74-.6,1.34-1.34,1.34s-1.34-.6-1.34-1.34.6-1.34,1.34-1.34,1.34.6,1.34,1.34Z"/>
  </g>
  <g>
    <path class="cls-4" d="M453.81,344.68c0,.74-.6,1.34-1.34,1.34s-1.34-.6-1.34-1.34.6-1.34,1.34-1.34,1.34.6,1.34,1.34Z"/>
    <path class="cls-4" d="M464.75,344.68c0,.74-.6,1.34-1.34,1.34s-1.34-.6-1.34-1.34.6-1.34,1.34-1.34,1.34.6,1.34,1.34Z"/>
    <path class="cls-4" d="M475.69,344.68c0,.74-.6,1.34-1.34,1.34s-1.34-.6-1.34-1.34.6-1.34,1.34-1.34,1.34.6,1.34,1.34Z"/>
    <path class="cls-4" d="M486.63,344.68c0,.74-.6,1.34-1.34,1.34s-1.34-.6-1.34-1.34.6-1.34,1.34-1.34,1.34.6,1.34,1.34Z"/>
    <path class="cls-4" d="M497.57,344.68c0,.74-.6,1.34-1.34,1.34s-1.34-.6-1.34-1.34.6-1.34,1.34-1.34,1.34.6,1.34,1.34Z"/>
    <path class="cls-4" d="M453.81,336.66c0,.74-.6,1.34-1.34,1.34s-1.34-.6-1.34-1.34.6-1.34,1.34-1.34,1.34.6,1.34,1.34Z"/>
    <path class="cls-4" d="M464.75,336.66c0,.74-.6,1.34-1.34,1.34s-1.34-.6-1.34-1.34.6-1.34,1.34-1.34,1.34.6,1.34,1.34Z"/>
    <path class="cls-4" d="M475.69,336.66c0,.74-.6,1.34-1.34,1.34s-1.34-.6-1.34-1.34.6-1.34,1.34-1.34,1.34.6,1.34,1.34Z"/>
    <path class="cls-4" d="M486.63,336.66c0,.74-.6,1.34-1.34,1.34s-1.34-.6-1.34-1.34.6-1.34,1.34-1.34,1.34.6,1.34,1.34Z"/>
    <path class="cls-4" d="M497.57,336.66c0,.74-.6,1.34-1.34,1.34s-1.34-.6-1.34-1.34.6-1.34,1.34-1.34,1.34.6,1.34,1.34Z"/>
    <path class="cls-4" d="M453.81,328.65c0,.74-.6,1.34-1.34,1.34s-1.34-.6-1.34-1.34.6-1.34,1.34-1.34,1.34.6,1.34,1.34Z"/>
    <path class="cls-4" d="M464.75,328.65c0,.74-.6,1.34-1.34,1.34s-1.34-.6-1.34-1.34.6-1.34,1.34-1.34,1.34.6,1.34,1.34Z"/>
    <path class="cls-4" d="M475.69,328.65c0,.74-.6,1.34-1.34,1.34s-1.34-.6-1.34-1.34.6-1.34,1.34-1.34,1.34.6,1.34,1.34Z"/>
    <path class="cls-4" d="M486.63,328.65c0,.74-.6,1.34-1.34,1.34s-1.34-.6-1.34-1.34.6-1.34,1.34-1.34,1.34.6,1.34,1.34Z"/>
    <path class="cls-4" d="M497.57,328.65c0,.74-.6,1.34-1.34,1.34s-1.34-.6-1.34-1.34.6-1.34,1.34-1.34,1.34.6,1.34,1.34Z"/>
  </g>
  <g>
    <rect class="cls-7" x="395.09" y="246.26" width="42.88" height="7.8"/>
    <rect class="cls-7" x="395.09" y="256.91" width="42.88" height="7.18"/>
    <rect class="cls-7" x="395.09" y="267.56" width="42.88" height="6.55"/>
    <rect class="cls-7" x="395.09" y="278.2" width="42.88" height="5.92"/>
    <rect class="cls-7" x="395.09" y="288.85" width="42.88" height="5.3"/>
    <rect class="cls-7" x="395.09" y="299.5" width="42.88" height="4.67"/>
    <rect class="cls-7" x="395.09" y="310.15" width="42.88" height="4.05"/>
    <rect class="cls-7" x="395.09" y="320.8" width="42.88" height="3.42"/>
  </g>
  <g>
    <polygon class="cls-9" points="267.94 267.69 313.05 312.8 313.05 267.69 267.94 267.69"/>
    <polygon class="cls-9" points="267.94 312.8 313.05 357.9 313.05 312.8 267.94 312.8"/>
  </g>
  <ellipse class="cls-1" cx="505.22" cy="202.62" rx="78.33" ry="22.13" transform="translate(-38.28 232.78) rotate(-25.03)"/>
  <path class="cls-11" d="M522.84,115.55c-19.46,0-35.24,15.78-35.24,35.24s15.78,35.24,35.24,35.24v-70.47Z"/>
  <path class="cls-11" d="M522.84,115.55c19.46,0,35.24-15.78,35.24-35.24,0-19.46-15.78-35.24-35.24-35.24v70.47Z"/>
  <g>
    <g>
      <path class="cls-11" d="M512.5,250.42c-24.28,0-45.7,12.18-58.52,30.75,12.82,18.57,34.25,30.75,58.52,30.75s45.7-12.18,58.52-30.75c-12.82-18.57-34.25-30.75-58.52-30.75Z"/>
      <circle class="cls-5" cx="512.5" cy="281.17" r="30.34"/>
      <circle class="cls-7" cx="512.5" cy="281.17" r="14.29"/>
    </g>
    <polyline class="cls-2" points="453.98 281.17 512.5 281.17 512.5 250.82"/>
  </g>
  <rect class="cls-5" x="73.8" y="79.96" width="62.2" height="13.21"/>
  <rect class="cls-8" x="11.6" y="93.18" width="62.2" height="13.21"/>
  <path class="cls-1" d="M95.27,169.14h-53.52c-2.98,0-5.4-2.42-5.4-5.4h0c0-2.98,2.42-5.4,5.4-5.4h53.52c2.98,0,5.4,2.42,5.4,5.4h0c0,2.98-2.42,5.4-5.4,5.4Z"/>
  <path class="cls-1" d="M534.61,98.15h-53.52c-2.98,0-5.4-2.42-5.4-5.4h0c0-2.98,2.42-5.4,5.4-5.4h53.52c2.98,0,5.4,2.42,5.4,5.4h0c0,2.98-2.42,5.4-5.4,5.4Z"/>
</svg>