<?xml version="1.0" encoding="UTF-8"?>
<svg id="Calque_1" data-name="Calque 1" xmlns="http://www.w3.org/2000/svg" viewBox="0 0 769.2 440">
  <defs>
    <style>
      .cls-1, .cls-2 {
        opacity: .1;
      }

      .cls-1, .cls-3, .cls-4 {
        fill: #ea5b39;
      }

      .cls-5 {
        letter-spacing: -.04em;
      }

      .cls-2, .cls-6 {
        fill: #13162a;
      }

      .cls-7 {
        letter-spacing: -.03em;
      }

      .cls-8 {
        letter-spacing: -.06em;
      }

      .cls-9 {
        letter-spacing: -.1em;
      }

      .cls-10 {
        fill: #13162a;
      }

      .cls-11 {
        letter-spacing: -.04em;
      }

      .cls-12 {
        letter-spacing: -.03em;
      }

      .cls-13 {
        fill: none;
        stroke: #13162a;
        stroke-width: .75px;
      }

      .cls-13, .cls-14 {
        stroke-miterlimit: 10;
      }

      .cls-15 {
        letter-spacing: -.04em;
      }

      .cls-14 {
        stroke: #13162a;
        stroke-width: 2px;
      }

      .cls-14, .cls-16 {
        fill: #f9fbf7;
      }

      .cls-4 {
        font-family: Aukera-Regular, Aukera;
        font-size: 24.36px;
      }

      .cls-17 {
        fill: #14172b;
      }
    </style>
  </defs>
  <rect class="cls-14" x="0" y=".84" width="769.2" height="439.16"/>
  <rect class="cls-10" x="122.07" y="101.12" width="529.44" height="245.24" rx="16.21" ry="16.21"/>
  <polygon class="cls-2" points="84.71 216.99 92.63 62.03 0 164.62 0 440 86.29 440 84.71 409.12 239.67 417.03 124.5 313.05 239.67 209.08 84.71 216.99"/>
  <rect class="cls-14" x="117.69" y="97.37" width="522.05" height="235.03" rx="16.21" ry="16.21"/>
  <g>
    <path class="cls-6" d="M301.97,254.25h-11.83c-6.2,0-11.24-5.04-11.24-11.24v-12.24c0-19.9-11.04-31.79-29.54-31.79s-29.54,11.88-29.54,31.79v12.24c0,6.2-5.04,11.24-11.24,11.24h-11.83c-6.2,0-11.24-5.04-11.24-11.24v-97.48c0-6.2,5.04-11.24,11.24-11.24h11.83c6.2,0,11.24,5.04,11.24,11.24v26.2c7.97-4.19,18.04-7.06,29.54-7.06s21.58,2.87,29.54,7.06v-26.2c0-6.2,5.04-11.24,11.24-11.24h11.83c6.2,0,11.24,5.04,11.24,11.24v97.48c0,6.2-5.04,11.24-11.24,11.24Z"/>
    <path class="cls-6" d="M409.49,254.25h-75.25c-19.47,0-33.06-13.6-33.06-33.06v-23.45c0-18.95,5.18-35.05,14.97-46.55,10.56-12.39,25.98-18.94,44.61-18.94,36.19,0,59.58,25.23,59.58,64.27v14.07c0,4.52-2.68,8.42-6.53,10.21,4.07,1.69,6.94,5.71,6.94,10.39v11.83c0,6.2-5.04,11.24-11.24,11.24ZM336.43,187.5h48.62c-2.04-10.14-8.03-20.95-24.31-20.95s-22.27,10.82-24.31,20.95Z"/>
    <path class="cls-6" d="M431.76,254.25h-11.83c-6.2,0-11.24-5.04-11.24-11.24v-75.46c0-19.59,13.68-33.27,33.27-33.27h25.08c6.2,0,11.24,5.04,11.24,11.24v11.83c0,6.2-5.04,11.24-11.24,11.24h-22.84c-.65,0-.98.13-1.04.18-.02.04-.15.37-.15,1.02v73.21c0,6.2-5.04,11.24-11.24,11.24Z"/>
    <path class="cls-6" d="M511.95,256.08c-19.75,0-35.25-5.55-46.07-16.49-10.59-10.71-15.96-25.83-15.96-44.92,0-39.09,23.19-62.43,62.02-62.43s62.02,23.34,62.02,62.43c0,19.1-5.37,34.21-15.96,44.92-10.82,10.94-26.32,16.49-46.07,16.49ZM511.95,166.55c-18.1,0-26.89,9.2-26.89,28.12s8.55,27.1,26.89,27.1,26.89-8.61,26.89-27.1-8.8-28.12-26.89-28.12Z"/>
  </g>
  <g>
    <path class="cls-16" d="M210.81,230.77v12.24c0,1.22-1.02,2.24-2.24,2.24h-11.83c-1.22,0-2.24-1.02-2.24-2.24v-97.48c0-1.22,1.02-2.24,2.24-2.24h11.83c1.22,0,2.24,1.02,2.24,2.24v45.48c4.08-6.73,17.95-17.33,38.54-17.33s34.47,10.6,38.54,17.33v-45.48c0-1.22,1.02-2.24,2.24-2.24h11.83c1.22,0,2.24,1.02,2.24,2.24v97.48c0,1.22-1.02,2.24-2.24,2.24h-11.83c-1.22,0-2.24-1.02-2.24-2.24v-12.24c0-25.9-15.91-40.79-38.54-40.79s-38.54,14.89-38.54,40.79Z"/>
    <path class="cls-16" d="M360.75,141.24c32.83,0,50.58,22.64,50.58,55.27v14.07c0,1.22-1.02,2.24-2.24,2.24h-82.6v5.91c0,6.12,4.08,10.2,10.2,10.2h72.81c1.22,0,2.24,1.02,2.24,2.24v11.83c0,1.22-1.02,2.24-2.24,2.24h-75.25c-14.48,0-24.06-9.59-24.06-24.06v-23.45c0-33.24,17.34-56.49,50.58-56.49ZM327.1,196.5h67.91c-.41-22.43-11.83-38.95-34.26-38.95s-33.85,16.52-34.26,38.95h.61Z"/>
    <path class="cls-16" d="M469.28,145.52v11.83c0,1.22-1.02,2.24-2.24,2.24h-22.84c-6.12,0-10.2,4.08-10.2,10.2v73.21c0,1.22-1.02,2.24-2.24,2.24h-11.83c-1.22,0-2.24-1.02-2.24-2.24v-75.46c0-14.48,9.79-24.27,24.27-24.27h25.08c1.22,0,2.24,1.02,2.24,2.24Z"/>
  </g>
  <circle class="cls-6" cx="512.73" cy="194.26" r="30.64"/>
  <g>
    <path class="cls-16" d="M512.55,235.82c-.88,0-1.65-.59-1.88-1.45-.22-.84-1.54-5.1-5.82-6.94-3.12-1.34-6.78-.94-9.73.97-.52.42-1.03.8-1.52,1.16-.84.62-2.01.46-2.66-.35-.65-.81-.56-1.99.22-2.68.53-.47,1.08-.9,1.66-1.28,4.01-3.24,8.75-8.42,11.31-15.99.97-2.87,1.55-5.87,1.72-8.94-4.38.4-8.59,1.55-12.56,3.44-5.6,2.67-9.59,6.32-12.23,9.4-.49.74-1.05,1.43-1.68,2.08-.72.73-1.88.79-2.66.12-.78-.67-.91-1.82-.29-2.65.48-.64.98-1.27,1.5-1.88,1.52-2.42,1.95-5.39,1.09-8.14-1.55-4.98-6.53-6.46-6.75-6.52-.84-.24-1.41-1-1.41-1.87,0-.87.58-1.63,1.41-1.87.21-.06,5.16-1.52,6.8-6.43.92-2.75.56-5.76-.92-8.25-.49-.62-.97-1.25-1.42-1.9-.59-.84-.42-1.99.38-2.64.8-.64,1.96-.55,2.65.21.6.65,1.12,1.35,1.58,2.09,2.64,3.26,5.88,6.04,9.48,8.12,5.4,3.12,10.69,4.19,14.69,4.48-.42-4.44-1.75-10.33-5.34-16.24-2.23-3.67-5.07-6.93-8.44-9.69-.03-.02-.05-.04-.07-.06-.83-.68-.94-1.91-.26-2.73.68-.83,1.9-.95,2.73-.28.02.01.03.03.05.04.45.36,4.48,3.42,9.43,1.83,4.65-1.5,6.24-5.89,6.41-6.39.26-.78.99-1.32,1.82-1.33.78-.02,1.57.5,1.86,1.27.39,1.07,1.98,4.66,6.03,6.27,5.14,2.04,9.76-1.03,10.13-1.3,0,0,.02-.01.03-.02.88-.61,2.09-.4,2.71.48.62.88.41,2.09-.47,2.71-.01,0-.02.02-.04.02-3.11,2.18-7.43,6.06-10.42,12.21-2.39,4.91-3.1,9.59-3.19,13.12,4.23-.42,9.85-1.7,15.52-5.1,3.64-2.19,6.85-4.98,9.56-8.29.21-.28.43-.56.66-.83.68-.8,1.89-.91,2.71-.24.82.67.96,1.87.31,2.7-.2.26-.4.51-.6.76-2.3,3.14-2.78,7.12-1.19,10.36,1.73,3.53,5.26,4.74,6.3,5.02.83.23,1.41.98,1.43,1.84.01.86-.54,1.63-1.37,1.89-1.31.41-4.54,1.72-6.25,5.09-1.66,3.26-1.31,7.33.83,10.66.27.36.54.73.8,1.11.6.86.4,2.04-.44,2.67-.84.63-2.03.47-2.68-.35-.31-.38-.59-.78-.86-1.18-2.19-2.9-5.7-6.57-10.89-9.37-5.13-2.76-10.09-3.7-13.85-3.94.42,3.39,1.25,6.7,2.48,9.87,2.15,5.54,5.57,10.67,9.93,14.9.44.36.85.75,1.24,1.17.71.77.69,1.95-.05,2.69s-1.92.77-2.69.07c-.37-.33-.73-.68-1.09-1.02-2.24-1.78-5.26-2.35-8.02-1.44-3.09,1.02-5.37,3.78-5.79,7.03-.12.92-.88,1.63-1.81,1.69-.04,0-.08,0-.12,0ZM500.97,222.76c1.84,0,3.68.36,5.41,1.1,2.8,1.2,4.69,3.14,5.92,4.96,1.51-2.51,3.89-4.47,6.75-5.42,1.37-.45,2.78-.67,4.18-.62-2.45-3.29-4.45-6.88-5.91-10.66-1.63-4.19-2.62-8.61-2.95-13.14-.04-.54.15-1.07.51-1.46.37-.4.88-.62,1.42-.62,4.33,0,10.96.75,17.86,4.47,2.3,1.24,4.47,2.72,6.46,4.42-.01-2.18.47-4.33,1.46-6.29,1.22-2.39,2.95-4.03,4.6-5.13-1.7-1.09-3.51-2.76-4.73-5.24-.93-1.91-1.37-3.98-1.32-6.07-1.46,1.18-3,2.26-4.63,3.24-5.8,3.49-12.5,5.49-19.38,5.8-.51.02-1.02-.16-1.41-.51s-.61-.84-.63-1.36c-.15-4.08.35-10.34,3.58-16.98,1.5-3.1,3.31-5.69,5.16-7.81-1.57,0-3.27-.28-5.04-.98-3.06-1.21-5.09-3.25-6.38-5.07-1.36,1.97-3.6,4.2-7.09,5.33-1.58.51-3.08.69-4.47.65,1.15,1.43,2.21,2.93,3.16,4.51,3.66,6.03,5.75,13.02,6.04,20.21.02.53-.18,1.05-.55,1.43-.37.38-.91.58-1.42.59-4.59-.04-11.57-.96-18.71-5.08-1.91-1.1-3.72-2.38-5.42-3.81-.03,1.35-.26,2.71-.7,4.03-1.17,3.5-3.48,5.72-5.52,7.08,2.06,1.38,4.38,3.65,5.49,7.23.41,1.3.61,2.64.61,3.97,2.54-2.07,5.31-3.84,8.26-5.24,5.08-2.42,10.52-3.75,16.17-3.95.52-.02,1.04.18,1.42.54s.6.87.6,1.4c.01,4.22-.66,8.35-1.98,12.27-1.69,4.98-4.21,9.03-6.91,12.24.03,0,.05,0,.08,0Z"/>
    <g>
      <circle class="cls-16" cx="492.6" cy="160.78" r="4.62"/>
      <circle class="cls-13" cx="492.6" cy="160.78" r="4.62"/>
    </g>
    <g>
      <circle class="cls-16" cx="511.88" cy="155.73" r="4.62"/>
      <circle class="cls-13" cx="511.88" cy="155.73" r="4.62"/>
    </g>
    <g>
      <circle class="cls-16" cx="531.45" cy="160.78" r="4.62"/>
      <circle class="cls-13" cx="531.45" cy="160.78" r="4.62"/>
    </g>
    <g>
      <circle class="cls-16" cx="545.55" cy="175.11" r="4.62"/>
      <circle class="cls-13" cx="545.55" cy="175.11" r="4.62"/>
    </g>
    <g>
      <circle class="cls-16" cx="550.56" cy="194.3" r="4.62"/>
      <circle class="cls-13" cx="550.56" cy="194.3" r="4.62"/>
    </g>
    <g>
      <circle class="cls-16" cx="545.55" cy="213.49" r="4.62"/>
      <circle class="cls-13" cx="545.55" cy="213.49" r="4.62"/>
    </g>
    <g>
      <circle class="cls-16" cx="531.2" cy="227.78" r="4.62"/>
      <circle class="cls-13" cx="531.2" cy="227.78" r="4.62"/>
    </g>
    <g>
      <circle class="cls-16" cx="512.39" cy="232.8" r="4.62"/>
      <circle class="cls-13" cx="512.39" cy="232.8" r="4.62"/>
    </g>
    <g>
      <circle class="cls-16" cx="492.55" cy="227.78" r="4.62"/>
      <circle class="cls-13" cx="492.55" cy="227.78" r="4.62"/>
    </g>
    <g>
      <circle class="cls-16" cx="478.38" cy="213.49" r="4.62"/>
      <circle class="cls-13" cx="478.38" cy="213.49" r="4.62"/>
    </g>
    <g>
      <circle class="cls-16" cx="473.27" cy="194.3" r="4.62"/>
      <circle class="cls-13" cx="473.27" cy="194.3" r="4.62"/>
    </g>
    <g>
      <circle class="cls-16" cx="478.38" cy="175.11" r="4.62"/>
      <circle class="cls-13" cx="478.38" cy="175.11" r="4.62"/>
    </g>
  </g>
  <polygon class="cls-17" points="606.44 294.62 613.91 286.35 613.34 297.47 624.46 296.9 616.19 304.36 624.46 311.83 613.34 311.26 613.91 322.38 606.44 314.11 598.98 322.38 599.55 311.26 588.43 311.83 596.7 304.36 588.43 296.9 599.55 297.47 598.98 286.35 606.44 294.62"/>
  <polygon class="cls-3" points="151.72 117.42 159.88 108.39 159.26 120.54 171.41 119.92 162.38 128.08 171.41 136.23 159.26 135.61 159.88 147.76 151.72 138.73 143.57 147.76 144.19 135.61 132.04 136.23 141.07 128.08 132.04 119.92 144.19 120.54 143.57 108.39 151.72 117.42"/>
  <text class="cls-4" transform="translate(232.49 291.68)"><tspan class="cls-11" x="0" y="0">b</tspan><tspan class="cls-8" x="18.31" y="0">o</tspan><tspan class="cls-7" x="36.38" y="0">is</tspan><tspan class="cls-11" x="59.19" y="0">s</tspan><tspan class="cls-8" x="77.5" y="0">o</tspan><tspan class="cls-11" x="95.57" y="0">n </tspan><tspan class="cls-12" x="120.12" y="0">é</tspan><tspan class="cls-5" x="138.12" y="0">n</tspan><tspan class="cls-12" x="156.78" y="0">er</tspan><tspan class="cls-15" x="183.91" y="0">g</tspan><tspan class="cls-9" x="201.56" y="0">é</tspan><tspan class="cls-11" x="217.82" y="0">t</tspan><tspan class="cls-7" x="231.57" y="0">iqu</tspan><tspan class="cls-11" x="273.74" y="0">e</tspan></text>
  <polygon class="cls-1" points="769.2 .84 585.08 .84 486.64 89.71 627.34 82.53 620.15 223.23 714.56 118.66 769.2 179.17 769.2 .84"/>
</svg>