<?xml version="1.0" encoding="UTF-8"?>
<svg id="Calque_1" data-name="Calque 1" xmlns="http://www.w3.org/2000/svg" xmlns:xlink="http://www.w3.org/1999/xlink" viewBox="0 0 769.2 440">
  <defs>
    <style>
      .cls-1 {
        fill: none;
      }

      .cls-2 {
        fill: #eceff4;
      }

      .cls-3 {
        fill: #fff8ee;
      }

      .cls-4 {
        fill: #cbff05;
      }

      .cls-5 {
        fill: url(#Nouveau_motif);
        opacity: .02;
      }
    </style>
    <pattern id="Nouveau_motif" data-name="Nouveau motif" x="0" y="0" width="484.25" height="479.98" patternTransform="translate(-105.75 -320)" patternUnits="userSpaceOnUse" viewBox="0 0 484.25 479.98">
      <g>
        <rect class="cls-1" width="484.25" height="479.98"/>
        <path class="cls-2" d="M482.82,496.12c4.35,18.29-1.41,37.18-15.04,48.91-17.36,14.94-45.1,16.22-63.81.45-18.77-15.82-20.48-42.08-10.71-59.9,10.02-18.28,29.66-23.19,31.22-23.56,10.38-2.42,19.15-.76,23.7.45-2.57-.34-24.14-2.81-38.62,12.11-15.67,16.15-15.72,45.14,1.82,61.02,12.38,11.2,31.36,13.94,46.95,6.73,17.27-7.99,27.39-26.8,24.49-46.21Z"/>
        <path class="cls-2" d="M192.27,476.92c4.35,18.29-1.41,37.18-15.04,48.91-17.36,14.94-45.1,16.22-63.81.45-18.77-15.82-20.48-42.08-10.71-59.9,10.02-18.28,29.66-23.19,31.22-23.56,10.38-2.42,19.15-.76,23.7.45-2.57-.34-24.14-2.81-38.62,12.11-15.67,16.15-15.72,45.14,1.82,61.02,12.38,11.2,31.36,13.94,46.95,6.73,17.27-7.99,27.39-26.8,24.49-46.21Z"/>
        <path class="cls-2" d="M482.82,400.13c4.35,18.29-1.41,37.18-15.04,48.91-17.36,14.94-45.1,16.22-63.81.45-18.77-15.82-20.48-42.08-10.71-59.9,10.02-18.28,29.66-23.19,31.22-23.56,10.38-2.42,19.15-.76,23.7.45-2.57-.34-24.14-2.81-38.62,12.11-15.67,16.15-15.72,45.14,1.82,61.02,12.38,11.2,31.36,13.94,46.95,6.73,17.27-7.99,27.39-26.8,24.49-46.21Z"/>
        <path class="cls-2" d="M385.97,457.73c4.35,18.29-1.41,37.18-15.04,48.91-17.36,14.94-45.1,16.22-63.81.45-18.77-15.82-20.48-42.08-10.71-59.9,10.02-18.28,29.66-23.19,31.22-23.56,10.38-2.42,19.15-.76,23.7.45-2.57-.34-24.14-2.81-38.62,12.11-15.67,16.15-15.72,45.14,1.82,61.02,12.38,11.2,31.36,13.94,46.95,6.73,17.27-7.99,27.39-26.8,24.49-46.21Z"/>
        <path class="cls-2" d="M289.12,419.33c4.35,18.29-1.41,37.18-15.04,48.91-17.36,14.94-45.1,16.22-63.81.45-18.77-15.82-20.48-42.08-10.71-59.9,10.02-18.28,29.66-23.19,31.22-23.56,10.38-2.42,19.15-.76,23.7.45-2.57-.34-24.14-2.81-38.62,12.11-15.67,16.15-15.72,45.14,1.82,61.02,12.38,11.2,31.36,13.94,46.95,6.73,17.27-7.99,27.39-26.8,24.49-46.21Z"/>
        <path class="cls-2" d="M192.27,380.93c4.35,18.29-1.41,37.18-15.04,48.91-17.36,14.94-45.1,16.22-63.81.45-18.77-15.82-20.48-42.08-10.71-59.9,10.02-18.28,29.66-23.19,31.22-23.56,10.38-2.42,19.15-.76,23.7.45-2.57-.34-24.14-2.81-38.62,12.11-15.67,16.15-15.72,45.14,1.82,61.02,12.38,11.2,31.36,13.94,46.95,6.73,17.27-7.99,27.39-26.8,24.49-46.21Z"/>
        <path class="cls-2" d="M95.42,438.53c4.35,18.29-1.41,37.18-15.04,48.91-17.36,14.94-45.1,16.22-63.81.45-18.77-15.82-20.48-42.08-10.71-59.9,10.02-18.28,29.66-23.19,31.22-23.56,10.38-2.42,19.15-.76,23.7.45-2.57-.34-24.14-2.81-38.62,12.11-15.67,16.15-15.72,45.14,1.82,61.02,12.38,11.2,31.36,13.94,46.95,6.73,17.27-7.99,27.39-26.8,24.49-46.21Z"/>
        <path class="cls-2" d="M482.82,304.13c4.35,18.29-1.41,37.18-15.04,48.91-17.36,14.94-45.1,16.22-63.81.45-18.77-15.82-20.48-42.08-10.71-59.9,10.02-18.28,29.66-23.19,31.22-23.56,10.38-2.42,19.15-.76,23.7.45-2.57-.34-24.14-2.81-38.62,12.11-15.67,16.15-15.72,45.14,1.82,61.02,12.38,11.2,31.36,13.94,46.95,6.73,17.27-7.99,27.39-26.8,24.49-46.21Z"/>
        <path class="cls-2" d="M385.97,361.73c4.35,18.29-1.41,37.18-15.04,48.91-17.36,14.94-45.1,16.22-63.81.45-18.77-15.82-20.48-42.08-10.71-59.9,10.02-18.28,29.66-23.19,31.22-23.56,10.38-2.42,19.15-.76,23.7.45-2.57-.34-24.14-2.81-38.62,12.11-15.67,16.15-15.72,45.14,1.82,61.02,12.38,11.2,31.36,13.94,46.95,6.73,17.27-7.99,27.39-26.8,24.49-46.21Z"/>
        <path class="cls-2" d="M289.12,323.33c4.35,18.29-1.41,37.18-15.04,48.91-17.36,14.94-45.1,16.22-63.81.45-18.77-15.82-20.48-42.08-10.71-59.9,10.02-18.28,29.66-23.19,31.22-23.56,10.38-2.42,19.15-.76,23.7.45-2.57-.34-24.14-2.81-38.62,12.11-15.67,16.15-15.72,45.14,1.82,61.02,12.38,11.2,31.36,13.94,46.95,6.73,17.27-7.99,27.39-26.8,24.49-46.21Z"/>
        <path class="cls-2" d="M192.27,284.93c4.35,18.29-1.41,37.18-15.04,48.91-17.36,14.94-45.1,16.22-63.81.45-18.77-15.82-20.48-42.08-10.71-59.9,10.02-18.28,29.66-23.19,31.22-23.56,10.38-2.42,19.15-.76,23.7.45-2.57-.34-24.14-2.81-38.62,12.11-15.67,16.15-15.72,45.14,1.82,61.02,12.38,11.2,31.36,13.94,46.95,6.73,17.27-7.99,27.39-26.8,24.49-46.21Z"/>
        <path class="cls-2" d="M95.42,342.53c4.35,18.29-1.41,37.18-15.04,48.91-17.36,14.94-45.1,16.22-63.81.45-18.77-15.82-20.48-42.08-10.71-59.9,10.02-18.28,29.66-23.19,31.22-23.56,10.38-2.42,19.15-.76,23.7.45-2.57-.34-24.14-2.81-38.62,12.11-15.67,16.15-15.72,45.14,1.82,61.02,12.38,11.2,31.36,13.94,46.95,6.73,17.27-7.99,27.39-26.8,24.49-46.21Z"/>
        <path class="cls-2" d="M482.82,208.13c4.35,18.29-1.41,37.18-15.04,48.91-17.36,14.94-45.1,16.22-63.81.45-18.77-15.82-20.48-42.08-10.71-59.9,10.02-18.28,29.66-23.19,31.22-23.56,10.38-2.42,19.15-.76,23.7.45-2.57-.34-24.14-2.81-38.62,12.11-15.67,16.15-15.72,45.14,1.82,61.02,12.38,11.2,31.36,13.94,46.95,6.73,17.27-7.99,27.39-26.8,24.49-46.21Z"/>
        <path class="cls-2" d="M385.97,265.73c4.35,18.29-1.41,37.18-15.04,48.91-17.36,14.94-45.1,16.22-63.81.45-18.77-15.82-20.48-42.08-10.71-59.9,10.02-18.28,29.66-23.19,31.22-23.56,10.38-2.42,19.15-.76,23.7.45-2.57-.34-24.14-2.81-38.62,12.11-15.67,16.15-15.72,45.14,1.82,61.02,12.38,11.2,31.36,13.94,46.95,6.73,17.27-7.99,27.39-26.8,24.49-46.21Z"/>
        <path class="cls-2" d="M289.12,227.33c4.35,18.29-1.41,37.18-15.04,48.91-17.36,14.94-45.1,16.22-63.81.45-18.77-15.82-20.48-42.08-10.71-59.9,10.02-18.28,29.66-23.19,31.22-23.56,10.38-2.42,19.15-.76,23.7.45-2.57-.34-24.14-2.81-38.62,12.11-15.67,16.15-15.72,45.14,1.82,61.02,12.38,11.2,31.36,13.94,46.95,6.73,17.27-7.99,27.39-26.8,24.49-46.21Z"/>
        <path class="cls-2" d="M192.27,188.93c4.35,18.29-1.41,37.18-15.04,48.91-17.36,14.94-45.1,16.22-63.81.45-18.77-15.82-20.48-42.08-10.71-59.9,10.02-18.28,29.66-23.19,31.22-23.56,10.38-2.42,19.15-.76,23.7.45-2.57-.34-24.14-2.81-38.62,12.11-15.67,16.15-15.72,45.14,1.82,61.02,12.38,11.2,31.36,13.94,46.95,6.73,17.27-7.99,27.39-26.8,24.49-46.21Z"/>
        <path class="cls-2" d="M95.42,246.53c4.35,18.29-1.41,37.18-15.04,48.91-17.36,14.94-45.1,16.22-63.81.45-18.77-15.82-20.48-42.08-10.71-59.9,10.02-18.28,29.66-23.19,31.22-23.56,10.38-2.42,19.15-.76,23.7.45-2.57-.34-24.14-2.81-38.62,12.11-15.67,16.15-15.72,45.14,1.82,61.02,12.38,11.2,31.36,13.94,46.95,6.73,17.27-7.99,27.39-26.8,24.49-46.21Z"/>
        <path class="cls-2" d="M482.82,112.14c4.35,18.29-1.41,37.18-15.04,48.91-17.36,14.94-45.1,16.22-63.81.45-18.77-15.82-20.48-42.08-10.71-59.9,10.02-18.28,29.66-23.19,31.22-23.56,10.38-2.42,19.15-.76,23.7.45-2.57-.34-24.14-2.81-38.62,12.11-15.67,16.15-15.72,45.14,1.82,61.02,12.38,11.2,31.36,13.94,46.95,6.73,17.27-7.99,27.39-26.8,24.49-46.21Z"/>
        <path class="cls-2" d="M385.97,169.74c4.35,18.29-1.41,37.18-15.04,48.91-17.36,14.94-45.1,16.22-63.81.45-18.77-15.82-20.48-42.08-10.71-59.9,10.02-18.28,29.66-23.19,31.22-23.56,10.38-2.42,19.15-.76,23.7.45-2.57-.34-24.14-2.81-38.62,12.11-15.67,16.15-15.72,45.14,1.82,61.02,12.38,11.2,31.36,13.94,46.95,6.73,17.27-7.99,27.39-26.8,24.49-46.21Z"/>
        <path class="cls-2" d="M289.12,131.34c4.35,18.29-1.41,37.18-15.04,48.91-17.36,14.94-45.1,16.22-63.81.45-18.77-15.82-20.48-42.08-10.71-59.9,10.02-18.28,29.66-23.19,31.22-23.56,10.38-2.42,19.15-.76,23.7.45-2.57-.34-24.14-2.81-38.62,12.11-15.67,16.15-15.72,45.14,1.82,61.02,12.38,11.2,31.36,13.94,46.95,6.73,17.27-7.99,27.39-26.8,24.49-46.21Z"/>
        <path class="cls-2" d="M192.27,92.94c4.35,18.29-1.41,37.18-15.04,48.91-17.36,14.94-45.1,16.22-63.81.45-18.77-15.82-20.48-42.08-10.71-59.9,10.02-18.28,29.66-23.19,31.22-23.56,10.38-2.42,19.15-.76,23.7.45-2.57-.34-24.14-2.81-38.62,12.11-15.67,16.15-15.72,45.14,1.82,61.02,12.38,11.2,31.36,13.94,46.95,6.73,17.27-7.99,27.39-26.8,24.49-46.21Z"/>
        <path class="cls-2" d="M95.42,150.54c4.35,18.29-1.41,37.18-15.04,48.91-17.36,14.94-45.1,16.22-63.81.45-18.77-15.82-20.48-42.08-10.71-59.9,10.02-18.28,29.66-23.19,31.22-23.56,10.38-2.42,19.15-.76,23.7.45-2.57-.34-24.14-2.81-38.62,12.11-15.67,16.15-15.72,45.14,1.82,61.02,12.38,11.2,31.36,13.94,46.95,6.73,17.27-7.99,27.39-26.8,24.49-46.21Z"/>
        <path class="cls-2" d="M482.82,16.14c4.35,18.29-1.41,37.18-15.04,48.91-17.36,14.94-45.1,16.22-63.81.45-18.77-15.82-20.48-42.08-10.71-59.9,10.02-18.28,29.66-23.19,31.22-23.56,10.38-2.42,19.15-.76,23.7.45-2.57-.34-24.14-2.81-38.62,12.11-15.67,16.15-15.72,45.14,1.82,61.02,12.38,11.2,31.36,13.94,46.95,6.73,17.27-7.99,27.39-26.8,24.49-46.21Z"/>
        <path class="cls-2" d="M385.97,73.74c4.35,18.29-1.41,37.18-15.04,48.91-17.36,14.94-45.1,16.22-63.81.45-18.77-15.82-20.48-42.08-10.71-59.9,10.02-18.28,29.66-23.19,31.22-23.56,10.38-2.42,19.15-.76,23.7.45-2.57-.34-24.14-2.81-38.62,12.11-15.67,16.15-15.72,45.14,1.82,61.02,12.38,11.2,31.36,13.94,46.95,6.73,17.27-7.99,27.39-26.8,24.49-46.21Z"/>
        <path class="cls-2" d="M289.12,35.34c4.35,18.29-1.41,37.18-15.04,48.91-17.36,14.94-45.1,16.22-63.81.45-18.77-15.82-20.48-42.08-10.71-59.9,10.02-18.28,29.66-23.19,31.22-23.56,10.38-2.42,19.15-.76,23.7.45-2.57-.34-24.14-2.81-38.62,12.11-15.67,16.15-15.72,45.14,1.82,61.02,12.38,11.2,31.36,13.94,46.95,6.73,17.27-7.99,27.39-26.8,24.49-46.21Z"/>
        <path class="cls-2" d="M192.27-3.06c4.35,18.29-1.41,37.18-15.04,48.91-17.36,14.94-45.1,16.22-63.81.45-18.77-15.82-20.48-42.08-10.71-59.9,10.02-18.28,29.66-23.19,31.22-23.56,10.38-2.42,19.15-.76,23.7.45-2.57-.34-24.14-2.81-38.62,12.11-15.67,16.15-15.72,45.14,1.82,61.02,12.38,11.2,31.36,13.94,46.95,6.73,17.27-7.99,27.39-26.8,24.49-46.21Z"/>
        <path class="cls-2" d="M95.42,54.54c4.35,18.29-1.41,37.18-15.04,48.91-17.36,14.94-45.1,16.22-63.81.45C-2.2,88.07-3.91,61.81,5.86,44c10.02-18.28,29.66-23.19,31.22-23.56,10.38-2.42,19.15-.76,23.7.45-2.57-.34-24.14-2.81-38.62,12.11-15.67,16.15-15.72,45.14,1.82,61.02,12.38,11.2,31.36,13.94,46.95,6.73,17.27-7.99,27.39-26.8,24.49-46.21Z"/>
        <path class="cls-2" d="M385.97-22.26c4.35,18.29-1.41,37.18-15.04,48.91-17.36,14.94-45.1,16.22-63.81.45-18.77-15.82-20.48-42.08-10.71-59.9,10.02-18.28,29.66-23.19,31.22-23.56,10.38-2.42,19.15-.76,23.7.45-2.57-.34-24.14-2.81-38.62,12.11-15.67,16.15-15.72,45.14,1.82,61.02,12.38,11.2,31.36,13.94,46.95,6.73,17.27-7.99,27.39-26.8,24.49-46.21Z"/>
        <path class="cls-2" d="M95.42-41.46c4.35,18.29-1.41,37.18-15.04,48.91-17.36,14.94-45.1,16.22-63.81.45C-2.2-7.93-3.91-34.18,5.86-52c10.02-18.28,29.66-23.19,31.22-23.56,10.38-2.42,19.15-.76,23.7.45-2.57-.34-24.14-2.81-38.62,12.11C6.5-46.84,6.45-17.86,23.99-1.97c12.38,11.2,31.36,13.94,46.95,6.73,17.27-7.99,27.39-26.8,24.49-46.21Z"/>
      </g>
    </pattern>
  </defs>
  <rect class="cls-5" x=".1" y=".84" width="769.09" height="439.16"/>
  <g>
    <path class="cls-4" d="M211.63,204.72c3.51,15-1.14,30.49-12.15,40.12-14.02,12.26-36.41,13.31-51.53.37-15.16-12.98-16.54-34.52-8.65-49.13,8.09-15,23.95-19.02,25.21-19.32,8.38-1.99,15.46-.62,19.14.37-2.08-.28-19.49-2.31-31.18,9.94-12.65,13.25-12.69,37.02,1.47,50.05,9.99,9.19,25.32,11.44,37.91,5.52,13.94-6.55,22.12-21.99,19.77-37.91Z"/>
    <path class="cls-4" d="M226.36,204.96c-3.51,15,1.14,30.49,12.15,40.12,14.02,12.26,36.41,13.31,51.53.37,15.16-12.98,16.54-34.52,8.65-49.13-8.09-15-23.95-19.02-25.21-19.32-8.38-1.99-15.46-.62-19.14.37,2.08-.28,19.49-2.31,31.18,9.94,12.65,13.25,12.69,37.02-1.47,50.05-9.99,9.19-25.32,11.44-37.91,5.52-13.94-6.55-22.12-21.99-19.77-37.91Z"/>
    <path class="cls-3" d="M121.32,254.11h-9.97s-8.32-47.35-8.32-47.35l-21.89,49.55-22-49.35-8.47,47.16h-9.43s14.77-75.63,14.77-75.63l25.06,56.8,25.06-56.15,15.18,74.97Z"/>
    <g>
      <path class="cls-3" d="M385.21,257.1l-54.38-56.02v53.24h-9.57v-75.34l54.7,55.3v-52.75h9.25v75.57Z"/>
      <path class="cls-3" d="M454.05,217.51c0,11.99-3.74,21.21-11.23,27.66-7.07,6.1-16.71,9.15-28.91,9.15h-16.22v-72.79h17.37c11.85,0,21.21,2.98,28.08,8.94,7.28,6.31,10.92,15.32,10.92,27.04ZM444.48,217.51c0-9.36-2.91-16.39-8.73-21.11-5.34-4.37-12.83-6.55-22.46-6.55h-6.03v56.15h6.86c8.67,0,15.74-2.29,21.21-6.86,6.1-5.13,9.15-12.34,9.15-21.63Z"/>
      <path class="cls-3" d="M524.55,254.32l-11.06.02-7.94-18.63h-30.17l-8.09,18.58-10.95.03,34-75.93,34.21,75.93ZM501.81,227.39l-11.5-26.8-11.43,26.8h22.93Z"/>
      <path class="cls-3" d="M593.91,257.1l-54.38-56.02v53.24h-9.57v-75.34l54.7,55.3v-52.75h9.25v75.57Z"/>
      <path class="cls-3" d="M659.41,250.68c-6.03,3.47-12.1,5.2-18.2,5.2-11.37,0-20.71-3.59-28.02-10.76-7.31-7.18-10.97-16.1-10.97-26.78s3.85-19.39,11.54-26.57c7.69-7.18,16.74-10.76,27.14-10.76,3.26,0,6.36.43,9.31,1.3,2.95.87,5.81,2.17,8.58,3.9v11.44c-2.7-2.77-5.33-4.75-7.88-5.93-2.98-1.39-6.36-2.08-10.17-2.08-7.82,0-14.6,2.81-20.34,8.42-5.74,5.62-8.61,12.2-8.61,19.76s2.9,14.7,8.71,20.59c5.81,5.89,12.62,8.84,20.44,8.84,3.53,0,6.67-.61,9.44-1.82,2.77-1.21,5.78-3.17,9.03-5.88v11.13Z"/>
      <path class="cls-3" d="M708.49,254.32h-39.51v-72.79h39.51v8.32h-29.95v20.8h29.01v8.32h-29.01v27.04h29.95v8.32Z"/>
    </g>
  </g>
</svg>